<svg width="40" height="38" viewBox="0 0 40 38" fill="none" xmlns="http://www.w3.org/2000/svg">
<path d="M39.3333 36V10H31.3333V36H29.3333V15.3333H21.3333V36H19.3333V20.6667H11.3333V36H9.33333V26.6667H1.33333V36H0.666667C0.298667 36 0 36.298 0 36.6667C0 37.0353 0.298667 37.3333 0.666667 37.3333H1.33333H9.33333H11.3333H19.3333H21.3333H29.3333H31.3333H39.3333C39.7013 37.3333 40 37.0353 40 36.6667C40 36.298 39.7013 36 39.3333 36ZM2.66667 36V28H8V36H2.66667ZM12.6667 36V22H18V36H12.6667ZM22.6667 36V16.6667H28V36H22.6667ZM32.6667 36V11.3333H38V36H32.6667Z" fill="#213266"/>
<path d="M5.35334 17.5533C5.46601 17.5533 5.58134 17.5246 5.68601 17.4639L29.8653 3.50395L28.352 6.83061C28.1993 7.16595 28.3473 7.56128 28.6827 7.71328C28.772 7.75461 28.866 7.77328 28.9587 7.77328C29.212 7.77328 29.454 7.62795 29.566 7.38261L31.9407 2.16261C31.948 2.14595 31.9467 2.12795 31.9527 2.11061C31.9653 2.07528 31.9753 2.04128 31.982 2.00395C31.9853 1.98528 31.996 1.96995 31.9973 1.95061C31.998 1.94261 31.9947 1.93595 31.9953 1.92795C31.9967 1.90261 31.994 1.87928 31.9927 1.85395C31.9907 1.81728 31.9847 1.78261 31.9767 1.74595C31.9713 1.72061 31.97 1.69461 31.9613 1.66995C31.9533 1.64595 31.9393 1.62595 31.9287 1.60261C31.92 1.58728 31.92 1.56928 31.9107 1.55328C31.9013 1.53728 31.8853 1.52795 31.8747 1.51261C31.8607 1.49195 31.85 1.46995 31.8333 1.45128C31.816 1.43128 31.794 1.41728 31.774 1.39928C31.7467 1.37461 31.7193 1.35195 31.6887 1.33195C31.668 1.31861 31.6493 1.30395 31.6267 1.29261C31.6193 1.28928 31.6153 1.28261 31.608 1.27928C31.5913 1.27195 31.5733 1.27328 31.5567 1.26728C31.52 1.25395 31.484 1.24461 31.446 1.23795C31.4287 1.23461 31.4147 1.22461 31.3967 1.22328L25.6887 0.669947C25.3187 0.632614 24.996 0.90328 24.9607 1.26861C24.9247 1.63528 25.1933 1.96128 25.5593 1.99661L29.1967 2.34928L5.01934 16.3093C4.70001 16.4933 4.59134 16.9013 4.77534 17.2199C4.89868 17.4339 5.12268 17.5533 5.35334 17.5533Z" fill="#189FE7"/>
</svg>
