<svg width="130" height="130" viewBox="0 0 130 130" fill="none" xmlns="http://www.w3.org/2000/svg">
<rect width="130" height="130" rx="65" fill="url(#paint0_linear)"/>
<g clip-path="url(#clip0)">
<path d="M12.8973 59.6217L12.5 81.5228C29.9177 80.5351 38.6954 77.7288 49.3167 70.7137V50.0273C40.9783 50.0273 29.6444 50.294 21.8806 50.5083C16.9338 50.6449 12.9873 54.6626 12.8973 59.6217Z" fill="white"/>
<path d="M58.614 13.5H80.5553L80.6561 18.5296C81.0068 36.0048 66.7513 50.2473 49.3169 49.8409V22.8182C49.3169 17.6719 53.4794 13.5 58.614 13.5Z" fill="url(#paint1_linear)"/>
<path d="M49.3169 70.7139C60.8454 63.2593 71.0722 53.7548 78.51 29.7139C72.7457 41.2684 66.6096 47.9775 49.3169 50.0275V70.7139Z" fill="white" fill-opacity="0.7"/>
<path d="M116.603 69.6921L117 47.791C99.5822 48.7789 90.8045 51.585 80.1831 58.6001V79.2865C88.5215 79.2865 99.8555 79.02 107.619 78.8057C112.566 78.6689 116.513 74.6512 116.603 69.6921Z" fill="white"/>
<path d="M70.8859 115.814H48.9446L48.8437 110.784C48.4933 93.3088 62.7486 79.0666 80.183 79.4728V106.496C80.183 111.642 76.0205 115.814 70.8859 115.814Z" fill="url(#paint2_linear)"/>
<path d="M80.1834 58.6001C68.6549 66.0546 58.4281 75.5592 50.9904 99.6001C56.7546 88.0455 62.8907 81.3365 80.1834 79.2865V58.6001Z" fill="white" fill-opacity="0.7"/>
</g>
<defs>
<linearGradient id="paint0_linear" x1="1.21334" y1="3.74817" x2="136.361" y2="14.2069" gradientUnits="userSpaceOnUse">
<stop stop-color="#57B8EF"/>
<stop offset="1" stop-color="#27D2AC"/>
</linearGradient>
<linearGradient id="paint1_linear" x1="64.9361" y1="13.5" x2="64.9361" y2="49.8409" gradientUnits="userSpaceOnUse">
<stop stop-color="white"/>
<stop offset="0.869792" stop-color="#98E8F6" stop-opacity="0.05"/>
</linearGradient>
<linearGradient id="paint2_linear" x1="64.5638" y1="115.814" x2="64.5638" y2="79.4728" gradientUnits="userSpaceOnUse">
<stop stop-color="white"/>
<stop offset="0.619792" stop-color="#98E8F6" stop-opacity="0.05"/>
<stop offset="1" stop-color="white" stop-opacity="0"/>
</linearGradient>
<clipPath id="clip0">
<rect width="104.5" height="102.5" fill="white" transform="translate(12.5 13.5)"/>
</clipPath>
</defs>
</svg>
